<svg width="706" height="212" viewBox="0 0 706 212" fill="none" xmlns="http://www.w3.org/2000/svg">
<path d="M120.377 36L161.066 59.4916V106.475L120.377 129.967L79.6885 106.475V59.4916L120.377 36Z" fill="#F0CE8A"/>
<path d="M79.6886 82.5134L120.377 106.005V152.988L79.6886 176.48L39 152.988V106.005L79.6886 82.5134Z" fill="#E8B45A"/>
<path d="M161.066 82.5134L201.754 106.005V152.988L161.066 176.48L120.377 152.988V106.005L161.066 82.5134Z" fill="#B17027"/>
<path d="M304.16 138.612L302.117 81.6316L282.335 146.568L266.961 148.395L248.9 82.9217L244.922 138.504L254.598 140.01L253.845 147.213H226L226.753 140.01L235.676 138.504L239.761 80.664L230.623 78.8363L231.376 71.8481H262.016L277.82 130.011L295.667 71.8481H325.769L325.017 79.0513L317.384 80.5565L319.749 138.612L329.21 140.01L328.457 147.213H294.484L295.129 140.01L304.16 138.612Z" fill="#1F1A14"/>
<path d="M337.494 136.139L339.967 104.316C340.111 102.811 339.985 101.718 339.591 101.037C339.197 100.356 338.462 100.016 337.387 100.016C336.527 100.016 335.595 100.141 334.592 100.392C333.588 100.643 332.406 101.019 331.044 101.521L328.786 94.6404C330.22 93.852 332.298 92.9919 335.022 92.0602C337.745 91.1284 340.72 90.6625 343.945 90.6625C346.454 90.6625 348.64 91.1105 350.503 92.0064C352.367 92.9023 353.729 94.3537 354.589 96.3606C355.449 98.3674 355.771 101.019 355.556 104.316L353.298 134.742C353.227 136.247 353.352 137.412 353.675 138.236C353.997 139.06 354.732 139.472 355.879 139.472C356.81 139.472 357.778 139.257 358.781 138.827C359.785 138.397 360.824 137.824 361.899 137.107L364.265 143.128C363.333 143.844 362.007 144.651 360.287 145.546C358.566 146.442 356.667 147.195 354.589 147.804C352.51 148.413 350.467 148.718 348.461 148.718C345.594 148.718 343.336 148.234 341.687 147.267C340.039 146.299 338.892 144.866 338.247 142.966C337.602 141.067 337.351 138.791 337.494 136.139ZM338.355 72.8158C338.355 70.3073 339.197 68.2108 340.881 66.5265C342.565 64.8422 344.841 64 347.708 64C349.571 64 351.202 64.3763 352.6 65.1289C353.997 65.8814 355.09 66.9207 355.879 68.2467C356.667 69.5726 357.061 71.0957 357.061 72.8158C357.061 75.3961 356.201 77.5104 354.481 79.1589C352.761 80.8074 350.503 81.6317 347.708 81.6317C344.841 81.6317 342.565 80.8074 340.881 79.1589C339.197 77.5104 338.355 75.3961 338.355 72.8158Z" fill="#1F1A14"/>
<path d="M421.897 66.4729L419.746 134.742C419.675 136.319 419.818 137.483 420.176 138.236C420.535 138.988 421.323 139.365 422.542 139.365C423.33 139.365 424.226 139.168 425.229 138.773C426.233 138.379 427.165 137.931 428.025 137.43L430.175 143.343C429.386 144.059 428.222 144.83 426.681 145.654C425.14 146.478 423.366 147.195 421.359 147.804C419.352 148.414 417.238 148.718 415.016 148.718C410.931 148.718 408.171 147.553 406.738 145.224C405.304 142.895 404.802 139.974 405.233 136.462L407.49 116.788L406.415 116.573L403.405 127.324C402.616 130.262 401.738 133.022 400.771 135.602C399.803 138.182 398.603 140.458 397.169 142.429C395.736 144.4 393.944 145.941 391.794 147.052C389.644 148.163 386.956 148.718 383.73 148.718C381.007 148.718 378.534 148.163 376.312 147.052C374.09 145.941 372.191 144.364 370.614 142.321C369.037 140.279 367.855 137.806 367.066 134.903C366.278 132 365.884 128.721 365.884 125.066C365.884 120.12 366.511 115.533 367.765 111.305C369.02 107.076 370.865 103.421 373.302 100.339C375.739 97.2566 378.713 94.8735 382.225 93.1891C385.737 91.5048 389.751 90.6626 394.266 90.6626C397.062 90.6626 399.588 90.9493 401.846 91.5227C404.104 92.0961 405.878 92.7053 407.168 93.3504L408.028 74.2136L397.384 71.9559L398.352 64.7527H419.854L421.897 66.4729ZM388.031 139.58C389.178 139.58 390.199 139.311 391.095 138.773C391.991 138.236 392.851 137.215 393.675 135.709C394.499 134.204 395.395 131.982 396.363 129.044C397.331 126.105 398.424 122.271 399.642 117.54L404.372 100.124C403.727 99.7652 402.921 99.4606 401.953 99.2097C400.986 98.9588 400.018 98.7438 399.051 98.5646C398.083 98.3855 397.133 98.2959 396.202 98.2959C393.765 98.2959 391.668 99.0484 389.912 100.554C388.156 102.059 386.723 104.155 385.612 106.843C384.501 109.531 383.677 112.613 383.139 116.089C382.602 119.565 382.333 123.274 382.333 127.216C382.333 131.086 382.763 134.115 383.623 136.301C384.483 138.487 385.952 139.58 388.031 139.58Z" fill="#1F1A14"/>
<path d="M473.078 90.6626C476.303 90.6626 478.758 91.7556 480.442 93.9417C482.127 96.1277 482.969 98.9767 482.969 102.489C482.969 105.714 482.611 109.369 481.894 113.455C481.177 117.54 480.066 121.643 478.561 125.765C477.056 129.886 475.085 133.685 472.648 137.161C470.211 140.637 467.237 143.432 463.725 145.547C460.213 147.661 456.127 148.718 451.468 148.718C449.39 148.718 447.365 148.503 445.394 148.073C443.423 147.643 441.649 146.801 440.072 145.547C438.496 144.292 437.259 142.5 436.363 140.171C435.467 137.842 435.127 134.849 435.342 131.194L436.74 103.886C436.811 102.883 436.722 102.077 436.471 101.467C436.22 100.858 435.808 100.428 435.234 100.177C434.661 99.9264 433.873 99.9443 432.869 100.231L428.999 101.414L426.849 94.4255C428.497 93.5654 430.719 92.7232 433.514 91.899C436.309 91.0747 439.391 90.6626 442.76 90.6626C446.487 90.6626 449.139 91.5944 450.716 93.4579C452.293 95.3214 452.974 97.8658 452.759 101.091L451.038 129.474C450.895 131.624 450.913 133.398 451.092 134.796C451.271 136.193 451.773 137.215 452.597 137.86C453.422 138.505 454.694 138.827 456.414 138.827C458.349 138.827 460.141 138.218 461.789 136.999C463.438 135.781 464.925 134.15 466.251 132.108C467.577 130.065 468.724 127.772 469.691 125.227C470.659 122.683 471.412 120.067 471.949 117.379C472.487 114.691 472.791 112.129 472.863 109.692C472.935 108.043 472.845 106.807 472.594 105.983C472.343 105.159 471.931 104.513 471.358 104.048C470.784 103.582 470.032 103.205 469.1 102.919L464.907 101.414C464.621 99.0484 464.8 97.0595 465.445 95.4468C466.09 93.8341 467.093 92.6336 468.455 91.8452C469.817 91.0568 471.358 90.6626 473.078 90.6626Z" fill="#1F1A14"/>
<path d="M543.611 92.3828L542.213 134.634C542.142 136.211 542.285 137.376 542.643 138.128C543.002 138.881 543.79 139.257 545.008 139.257C545.797 139.257 546.639 139.078 547.535 138.72C548.431 138.361 549.273 137.931 550.061 137.43L552.319 143.558C551.459 144.274 550.241 145.045 548.664 145.869C547.087 146.693 545.349 147.374 543.45 147.912C541.55 148.449 539.633 148.718 537.698 148.718C535.476 148.718 533.541 148.288 531.892 147.428C530.244 146.568 529.043 145.242 528.291 143.45C527.538 141.658 527.305 139.365 527.592 136.569L529.85 116.895L528.882 116.788L526.087 126.679C525.227 129.904 524.295 132.86 523.291 135.548C522.288 138.236 521.07 140.565 519.636 142.536C518.203 144.507 516.429 146.03 514.314 147.105C512.2 148.181 509.566 148.718 506.412 148.718C502.399 148.718 499.048 147.751 496.36 145.815C493.672 143.88 491.665 141.228 490.34 137.86C489.014 134.491 488.351 130.585 488.351 126.141C488.351 120.909 488.996 116.125 490.286 111.788C491.576 107.452 493.439 103.707 495.876 100.554C498.313 97.3999 501.252 94.963 504.692 93.2428C508.132 91.5227 512.003 90.6626 516.303 90.6626C519.457 90.6626 522.252 90.9851 524.689 91.6302C527.126 92.2753 529.025 92.9203 530.387 93.5654L540.063 90.8776L543.611 92.3828ZM510.713 139.58C511.859 139.58 512.863 139.293 513.723 138.72C514.583 138.146 515.425 137.071 516.25 135.494C517.074 133.918 517.97 131.606 518.937 128.56C519.905 125.514 521.07 121.518 522.431 116.573L526.839 100.231C525.979 99.801 524.797 99.3888 523.291 98.9946C521.786 98.6004 520.281 98.4033 518.776 98.4033C516.411 98.4033 514.35 99.1559 512.594 100.661C510.838 102.166 509.387 104.263 508.24 106.95C507.093 109.638 506.251 112.72 505.714 116.196C505.176 119.672 504.907 123.346 504.907 127.216C504.907 130.37 505.122 132.842 505.552 134.634C505.982 136.426 506.627 137.698 507.487 138.451C508.348 139.203 509.423 139.58 510.713 139.58Z" fill="#1F1A14"/>
<path d="M576.085 141.73C578.952 141.73 581.3 141.174 583.127 140.063C584.955 138.953 585.869 137.286 585.869 135.064C585.869 133.631 585.457 132.43 584.633 131.463C583.808 130.495 582.59 129.617 580.977 128.829C579.365 128.04 577.34 127.216 574.903 126.356C571.749 125.281 568.757 124.08 565.926 122.754C563.095 121.428 560.801 119.637 559.045 117.379C557.289 115.121 556.411 112.129 556.411 108.402C556.411 106.323 556.841 104.227 557.701 102.112C558.561 99.998 559.959 98.0628 561.894 96.3068C563.829 94.5508 566.356 93.1353 569.474 92.0602C572.591 90.9851 576.372 90.4475 580.816 90.4475C584.113 90.4475 587.231 90.8955 590.169 91.7914C593.108 92.6873 595.473 93.9953 597.265 95.7155C599.057 97.4357 599.953 99.5859 599.953 102.166C599.953 104.101 599.326 105.624 598.071 106.735C596.817 107.846 595.294 108.402 593.502 108.402C591.997 108.402 590.546 108.151 589.148 107.649C587.75 107.147 586.729 106.61 586.084 106.036L586.729 103.349C587.231 101.414 586.98 99.9263 585.976 98.8871C584.973 97.8478 582.93 97.3282 579.848 97.3282C577.698 97.3282 575.888 97.6328 574.419 98.242C572.95 98.8512 571.875 99.6396 571.194 100.607C570.513 101.575 570.172 102.668 570.172 103.886C570.172 105.033 570.585 106.072 571.409 107.004C572.233 107.936 573.451 108.796 575.064 109.584C576.677 110.373 578.594 111.161 580.816 111.95C583.109 112.81 585.349 113.706 587.535 114.637C589.721 115.569 591.692 116.68 593.448 117.97C595.204 119.26 596.62 120.819 597.695 122.647C598.77 124.474 599.308 126.714 599.308 129.366C599.308 133.308 598.286 136.731 596.244 139.633C594.201 142.536 591.334 144.776 587.643 146.353C583.952 147.93 579.562 148.718 574.473 148.718C570.746 148.718 567.341 148.324 564.259 147.535C561.177 146.747 558.705 145.582 556.841 144.041C554.978 142.5 554.046 140.583 554.046 138.29C554.046 135.924 554.798 134.168 556.304 133.022C557.809 131.875 559.601 131.301 561.679 131.301C562.898 131.301 564.098 131.427 565.281 131.678C566.463 131.929 567.341 132.269 567.915 132.699L568.022 136.032C568.022 137.967 568.56 139.4 569.635 140.332C570.71 141.264 572.86 141.73 576.085 141.73Z" fill="#1F1A14"/>
<path d="M665.433 137.43L667.798 143.45C666.866 144.095 665.791 144.722 664.573 145.332C663.354 145.941 662.046 146.496 660.649 146.998C659.251 147.5 657.871 147.894 656.509 148.181C655.148 148.467 653.858 148.611 652.639 148.611C649.557 148.611 647.21 148.055 645.597 146.944C643.984 145.833 642.909 144.364 642.372 142.536C641.834 140.709 641.673 138.72 641.888 136.569L644.361 108.939C644.647 106.431 644.558 104.711 644.092 103.779C643.626 102.847 642.82 102.381 641.673 102.381C640.598 102.381 639.72 102.722 639.039 103.403C638.358 104.083 637.713 105.177 637.104 106.682C636.495 108.187 635.796 110.194 635.007 112.702L624.041 147.213H607.592L610.388 73.7835L601.034 71.9559L601.894 64.7527H623.396L625.439 66.5804L623.934 103.134L620.816 131.624L621.784 131.839L628.879 107.864C629.739 105.069 630.671 102.596 631.675 100.446C632.678 98.2959 633.879 96.4861 635.276 95.0168C636.674 93.5475 638.286 92.4545 640.114 91.7377C641.942 91.021 644.146 90.6626 646.726 90.6626C650.381 90.6626 653.23 91.3615 655.273 92.7591C657.316 94.1567 658.695 96.1994 659.412 98.8872C660.129 101.575 660.308 104.818 659.95 108.617L657.8 134.634C657.728 136.211 657.8 137.376 658.015 138.128C658.23 138.881 658.982 139.257 660.272 139.257C661.132 139.257 661.992 139.096 662.853 138.773C663.713 138.451 664.573 138.003 665.433 137.43Z" fill="#1F1A14"/>
</svg>
